<svg width="169" height="201" viewBox="0 0 169 201" fill="#e89049" xmlns="http://www.w3.org/2000/svg">
<path d="M91.543 198.941C83.2897 199.923 75.803 200.424 69.083 200.442C48.9231 200.497 30.4815 196.996 13.7581 189.937L0.782405 184.213C0.589881 184.021 0.492569 183.542 0.490468 182.774L1.04914 176.436C1.42579 173.747 1.80454 171.826 2.18538 170.673C2.17803 167.985 2.26852 165.969 2.45684 164.624C2.44687 160.976 2.82168 157.615 3.58128 154.541C3.57498 152.237 3.66704 150.797 3.85746 150.22C4.04789 149.644 4.14257 149.164 4.14152 148.78C4.33247 148.395 4.42847 148.395 4.42952 148.779C14.6155 152.399 22.4935 154.585 28.0635 155.338C34.7872 156.664 42.469 157.315 51.109 157.291C54.949 157.281 57.9173 154.489 60.0141 148.915C60.5875 147.953 61.2534 145.743 62.012 142.285C62.9615 138.443 63.4362 136.521 63.4362 136.521C63.623 134.601 63.709 130.953 63.6943 125.577C63.6717 117.321 63.8448 110.408 64.2136 104.839C64.3951 100.999 64.4761 95.5264 64.4567 88.4225L64.7085 75.1737L64.6746 62.7898L64.2244 3.46279C64.2212 2.3108 64.5071 1.54201 65.0821 1.15643C65.849 0.770337 66.9045 0.575452 68.2485 0.571777L98.1996 0.201876L126.999 0.123121L154.935 0.0467281C157.815 0.0388525 160.024 0.224811 161.561 0.604605C163.29 0.983873 164.732 1.84393 165.888 3.18478C167.045 5.10162 167.723 7.21178 167.921 9.51525C168.513 15.2736 168.812 19.3048 168.818 21.6088L168.972 77.7686L168.978 80.0726C168.787 80.4571 168.693 81.2254 168.697 82.3774C168.7 83.5294 168.606 84.4897 168.416 85.2582C168.228 86.4107 168.135 87.563 168.138 88.715C168.333 89.8664 168.336 91.0184 168.147 92.1709C167.96 93.7075 167.87 95.9157 167.877 98.7957L167.893 104.556L167.612 107.148C167.633 114.828 167.459 121.261 167.089 126.446C166.911 131.63 166.253 136.816 165.116 142.003C162.272 155.451 156.925 165.834 149.073 173.151C139.88 181.625 127.419 188.667 111.69 194.278C103.441 196.604 96.7249 198.159 91.543 198.941Z" fill="#CCCFD6"/>
</svg>
